<svg width="2000" height="1500" viewBox="0 0 2000 1500" fill="none" xmlns="http://www.w3.org/2000/svg">
<g clip-path="url(#clip0_1_2)">
<rect width="2000" height="1500" fill="black"/>
<path d="M1300 700H1400V800H1300V700Z" fill="#171A1F"/>
<path d="M1100 500H1200V700H1100V500Z" fill="#171A1F"/>
<path d="M1500 500H1600V700H1500V500Z" fill="#171A1F"/>
<path d="M1100 800H1200V1000H1100V800Z" fill="#171A1F"/>
<path d="M1500 800H1600V1000H1500V800Z" fill="#171A1F"/>
<rect x="1100" y="500" width="500" height="100" fill="#171A1F"/>
<rect x="1100" y="900" width="500" height="100" fill="#171A1F"/>
<rect x="800" y="900" width="100" height="100" fill="#171A1F"/>
<rect x="800" y="700" width="100" height="100" fill="#171A1F"/>
<rect x="800" y="500" width="100" height="100" fill="#171A1F"/>
<rect x="-200" y="1250" width="2000" height="100" transform="rotate(-45 -200 1250)" fill="#171A1F"/>
</g>
<defs>
<clipPath id="clip0_1_2">
<rect width="2000" height="1500" fill="white"/>
</clipPath>
</defs>
</svg>
